:SAMPLES-PER-SECOND 30
:FULLY-SPECIFIED
:DEGREES
629
root  -73.4798 40.4663 2.63042 -2.80444 -71.3267 1.48273
RightUpLeg  -5.12191 -6.9967 -2.42882
RightLeg  11.6328 36.8657 5.84646
RightFoot  -10.8187 -0.121828 10.7506
RightToes  -1.74624e-010 0 -3.6325e-017
Spine  2.55858 -0.171374 8.41258
Spine1  5.64384 0.996745 -4.82346
HEad  -23.7122 -36.8626 7.87802
LeftShoulder1  -0.544427 4.87951 -33.4225
LeftArm  -0.535347 22.4249 -41.6532
LeftForeArm  39.2623 -12.0871 -7.86983
LeftHand  -0.118848 7.73255 -3.79799
RightShoulder  -1.05027 -6.28632 31.1861
RightArm  31.5662 11.3595 45.7804
RightForeArm  8.50122 16.1893 7.22816
RightHand  -0.0355515 4.65335 -0.685358
LeftUpLeg  -9.42651 0.0343054 7.57815
LeftLeg  9.80599 -21.3385 -1.65853
LeftFoot  -5.94701 0.288922 -5.49978
LeftToes  -3.96543e-010 8.93632e-011 -2.58531e-011
630
root  -73.5623 40.5302 3.0466 -3.75391 -73.2624 2.79315
RightUpLeg  -4.57168 -7.43724 -3.49737
RightLeg  9.7909 39.401 5.17912
RightFoot  -11.592 -0.0480603 13.8056
RightToes  -1.74624e-010 0 -3.6325e-017
Spine  1.9283 -0.313197 6.65024
Spine1  6.31331 0.668286 -4.27509
HEad  -23.4285 -37.7034 8.08573
LeftShoulder1  -0.570114 4.93208 -33.7597
LeftArm  0.554318 18.4195 -40.7853
LeftForeArm  38.3997 -12.159 -8.05566
LeftHand  -0.278899 9.54163 -5.34632
RightShoulder  -1.0635 -6.3011 31.457
RightArm  26.2617 11.2161 44.9254
RightForeArm  15.3512 11.8395 8.91793
RightHand  0.015155 3.39555 -0.0514802
LeftUpLeg  -8.49648 4.7021 6.63378
LeftLeg  8.00517 -23.7326 -1.64749
LeftFoot  -2.21058 0.427767 -5.1868
LeftToes  -3.96543e-010 8.93632e-011 -2.58531e-011
631
root  -73.5967 40.5989 3.49851 -5.75751 -74.5576 4.88129
RightUpLeg  -3.68615 -7.90363 -4.70521
RightLeg  7.64627 41.5009 3.79245
RightFoot  -12.1076 0.0253912 16.3176
RightToes  -1.74624e-010 0 -3.6325e-017
Spine  1.6167 -0.665425 5.07819
Spine1  7.06537 0.251908 -4.08778
HEad  -23.6037 -38.0212 8.51717
LeftShoulder1  -0.567454 4.92444 -33.7559
LeftArm  -0.405024 13.4386 -40.0347
LeftForeArm  38.3291 -11.2794 -8.23834
LeftHand  -0.570169 12.0869 -7.34508
RightShoulder  -1.07783 -6.31726 31.7478
RightArm  20.5963 10.0932 43.94
RightForeArm  20.7698 8.67343 9.08118
RightHand  -0.0330269 3.00689 -0.688816
LeftUpLeg  -7.37985 5.29068 5.69122
LeftLeg  6.99278 -22.7566 -1.2809
LeftFoot  -3.02992 0.370286 -4.89729
LeftToes  -3.96543e-010 8.93632e-011 -2.58531e-011
632
root  -73.5784 40.6735 3.95514 -7.41815 -75.6504 6.87616
RightUpLeg  -3.3541 -8.24961 -5.6385
RightLeg  5.81345 42.9333 2.43104
RightFoot  -11.7753 -0.014252 17.2117
RightToes  -1.74624e-010 0 -3.6325e-017
Spine  0.984914 -0.769366 4.59821
Spine1  7.92836 0.341258 -4.9912
HEad  -23.5061 -38.3568 8.91359
LeftShoulder1  -0.357113 4.41844 -32.9004
LeftArm  -3.10215 8.02922 -39.8282
LeftForeArm  38.4579 -8.71858 -8.67509
LeftHand  -0.00740857 7.00648 -0.0567466
RightShoulder  -1.08974 -6.34752 31.7522
RightArm  16.4478 7.8526 43.004
RightForeArm  20.5127 6.96794 8.31189
RightHand  -0.0327572 2.36855 -0.676335
LeftUpLeg  -7.14025 5.2946 4.54045
LeftLeg  6.45157 -21.2019 -1.0533
LeftFoot  -1.48713 0.265781 -2.96128
LeftToes  -3.96543e-010 8.93632e-011 -2.58531e-011
633
root  -73.5682 40.7234 4.44978 -9.88538 -76.9226 9.42828
RightUpLeg  -3.13272 -8.44266 -6.4537
RightLeg  4.85003 44.2914 1.32972
RightFoot  -11.2388 -0.0918317 16.5647
RightToes  -1.74624e-010 0 -3.6325e-017
Spine  1.07547 -0.839627 3.65541
Spine1  8.13978 0.326625 -5.13694
HEad  -23.4469 -38.3453 9.13884
LeftShoulder1  -0.241216 4.13547 -32.0898
LeftArm  -5.06242 3.51876 -39.6971
LeftForeArm  37.649 -8.14697 -8.16989
LeftHand  -0.0557062 8.19852 -0.314951
RightShoulder  -1.17424 -6.54554 32.0565
RightArm  14.8791 5.58435 41.5004
RightForeArm  18.8327 6.67311 7.64679
RightHand  0.0159433 2.46373 0.0473468
LeftUpLeg  -6.59749 4.94481 3.42975
LeftLeg  6.02296 -19.3412 -0.740917
LeftFoot  -0.761127 0.218715 -2.30838
LeftToes  -3.96543e-010 8.93632e-011 -2.58531e-011
634
root  -73.4593 40.7295 4.96528 -11.1386 -78.3482 11.1155
RightUpLeg  -3.8588 -8.10739 -6.82244
RightLeg  4.65032 45.3191 0.556211
RightFoot  -10.8581 -0.143125 16.2487
RightToes  -1.74624e-010 0 -3.6325e-017
Spine  0.634126 -1.09222 3.21051
Spine1  8.87902 0.132393 -5.34768
HEad  -23.6455 -37.3023 9.16193
LeftShoulder1  -0.21392 4.06803 -31.796
LeftArm  -6.07455 -1.1009 -39.027
LeftForeArm  36.1498 -8.73422 -7.66313
LeftHand  -0.0926797 9.5772 -0.997928
RightShoulder  -1.11939 -6.42787 31.7198
RightArm  14.0466 3.98316 40.9042
RightForeArm  16.9507 6.58434 7.31705
RightHand  -0.0398159 2.71956 -0.786544
LeftUpLeg  -7.14139 4.68706 2.66905
LeftLeg  6.68629 -17.6133 -0.976849
LeftFoot  -0.750015 0.13574 -1.41562
LeftToes  -3.96543e-010 8.93632e-011 -2.58531e-011
635
root  -73.3536 40.7213 5.51576 -14.5994 -80.1148 15.0387
RightUpLeg  -4.65586 -7.98449 -7.50372
RightLeg  4.29358 47.0208 -0.169998
RightFoot  -10.6019 -0.178038 16.2682
RightToes  -1.74624e-010 0 -3.6325e-017
Spine  0.913042 -1.28135 2.24856
Spine1  8.57062 -0.0583653 -5.39288
HEad  -23.9667 -36.4273 9.15098
LeftShoulder1  -0.223495 4.09439 -31.7143
LeftArm  -6.78561 -4.87394 -38.0166
LeftForeArm  33.8064 -9.52452 -7.275
LeftHand  -0.0230259 7.99661 0.795202
RightShoulder  -1.23978 -6.69726 32.2972
RightArm  15.8765 3.52136 39.0653
RightForeArm  16.0869 7.32401 7.83842
RightHand  -0.0271404 2.22538 -0.598448
LeftUpLeg  -7.44332 4.52944 1.68578
LeftLeg  6.92489 -15.4895 -1.0582
LeftFoot  -0.737794 0.0800466 -0.814877
LeftToes  -3.96543e-010 8.93632e-011 -2.58531e-011
636
root  -73.2052 40.6844 6.083 -21.7989 -82.4341 23.0034
RightUpLeg  -6.09408 -7.68239 -8.25065
RightLeg  3.99138 49.111 -0.8457
RightFoot  -10.6334 -0.179018 17.0819
RightToes  -1.74624e-010 0 -3.6325e-017
Spine  1.3459 -1.30029 1.542
Spine1  7.77509 0.0554125 -6.02503
HEad  -24.3362 -35.3088 9.0615
LeftShoulder1  -0.198246 4.02909 -31.6279
LeftArm  -7.27846 -8.08164 -37.0646
LeftForeArm  30.8645 -10.6215 -6.84633
LeftHand  0.00060995 8.44859 1.68377
RightShoulder  -1.12473 -6.42768 31.8917
RightArm  16.3421 2.14314 38.5786
RightForeArm  17.0886 8.55124 7.68339
RightHand  -0.0125337 2.60241 -0.395012
LeftUpLeg  -8.04475 4.59283 0.704517
LeftLeg  7.08025 -12.7691 -1.2977
LeftFoot  -0.841926 0.0220381 -0.184595
LeftToes  -3.96543e-010 8.93632e-011 -2.58531e-011
637
root  -73.0173 40.6467 6.64595 -33.0278 -84.7669 34.6222
RightUpLeg  -7.06843 -7.13444 -8.55139
RightLeg  2.99335 50.8195 -2.06822
RightFoot  -10.4819 -0.203785 17.4821
RightToes  -1.74624e-010 0 -3.6325e-017
Spine  2.1295 -1.31986 0.446478
Spine1  7.43245 -0.0772394 -5.57639
HEad  -25.2941 -33.9079 9.06703
LeftShoulder1  -0.168888 3.95303 -31.4485
LeftArm  -7.56988 -10.4354 -36.7515
LeftForeArm  27.2197 -12.481 -6.16122
LeftHand  -0.00457253 8.82556 1.48152
RightShoulder  -0.914091 -5.95624 30.6782
RightArm  16.1688 1.4106 39.007
RightForeArm  17.372 9.28827 7.41398
RightHand  0.000614469 3.21484 -0.227224
LeftUpLeg  -8.36041 5.36237 0.407238
LeftLeg  7.21166 -10.6376 -2.01106
LeftFoot  -1.19671 0.0243162 -0.1933
LeftToes  -3.96543e-010 8.93632e-011 -2.58531e-011
638
root  -72.7576 40.6108 7.14473 -56.0806 -86.5653 58.2414
RightUpLeg  -8.41392 -6.47596 -8.61043
RightLeg  2.12613 51.3934 -3.18194
RightFoot  -10.1991 -0.249072 17.8937
RightToes  -1.74624e-010 0 -3.6325e-017
Spine  3.79249 -1.28938 -1.51583
Spine1  5.97809 -0.374361 -4.3079
HEad  -26.0231 -32.2696 9.02962
LeftShoulder1  -0.0584514 3.66278 -30.4304
LeftArm  -8.41699 -11.7468 -37.0771
LeftForeArm  23.9019 -14.304 -5.31691
LeftHand  0.00177319 6.73764 2.91634
RightShoulder  -0.848247 -5.81747 30.0435
RightArm  16.1942 1.26446 39.4177
RightForeArm  16.9685 9.80268 7.26994
RightHand  0.00320492 2.46175 -0.152284
LeftUpLeg  -9.2999 5.7547 0.0851015
LeftLeg  7.74912 -8.53329 -2.45626
LeftFoot  -1.37512 0.0215594 -0.152277
LeftToes  -3.96543e-010 8.93632e-011 -2.58531e-011
639
root  -72.4967 40.576 7.64416 -96.6419 -87.3047 99.5715
RightUpLeg  -10.2079 -5.98544 -8.62066
RightLeg  2.41502 47.0865 -2.81255
RightFoot  -9.40484 -0.379897 18.2646
RightToes  -1.74624e-010 0 -3.6325e-017
Spine  4.49023 -1.53527 -2.95701
Spine1  5.66683 -0.723167 -3.84073
HEad  -26.6196 -30.5038 9.30936
LeftShoulder1  0.026728 3.42807 -28.8247
LeftArm  -9.49163 -13.024 -37.5705
LeftForeArm  22.8192 -16.4586 -4.44371
LeftHand  -0.00948372 5.95011 3.74052
RightShoulder  -0.959712 -6.07599 30.7336
RightArm  15.6108 2.22386 40.0306
RightForeArm  16.3431 9.99911 7.09973
RightHand  0.00041154 2.93272 -0.215488
LeftUpLeg  -10.6459 5.63026 -0.362137
LeftLeg  8.39212 -6.0109 -2.28489
LeftFoot  -1.41427 -0.0280367 0.423385
LeftToes  -3.96543e-010 8.93632e-011 -2.58531e-011
640
root  -72.2545 40.577 8.12853 -137.621 -86.7719 141.217
RightUpLeg  -11.611 -6.61766 -8.52199
RightLeg  2.67517 33.8981 -1.57803
RightFoot  -7.62725 -0.639554 18.422
RightToes  -1.74624e-010 0 -3.6325e-017
Spine  4.53365 -1.86146 -3.72373
Spine1  6.12074 -1.0896 -3.57297
HEad  -26.9482 -28.2038 9.7588
LeftShoulder1  0.0648813 3.31448 -28.034
LeftArm  -9.38466 -14.9028 -37.1791
LeftForeArm  21.398 -17.9335 -4.18789
LeftHand  -0.00131305 6.25959 3.98745
RightShoulder  -0.987851 -6.13423 30.9799
RightArm  14.193 3.03689 41.4902
RightForeArm  15.6905 10.0394 6.75818
RightHand  -0.0321946 3.14729 -0.669998
LeftUpLeg  -11.7409 5.64339 -0.477718
LeftLeg  8.66862 -3.96208 -1.94058
LeftFoot  -1.28847 -0.0712048 0.8956
LeftToes  -3.96543e-010 8.93632e-011 -2.58531e-011
641
root  -72.021 40.6799 8.59062 -157.943 -85.4324 162.289
RightUpLeg  -12.5497 -8.50369 -8.29846
RightLeg  3.19297 15.4641 -0.0575016
RightFoot  -4.76108 -0.893647 14.7917
RightToes  -1.74624e-010 0 -3.6325e-017
Spine  4.83172 -1.86027 -4.26419
Spine1  5.57576 -1.33077 -2.55883
HEad  -26.3836 -27.2533 9.48923
LeftShoulder1  0.132267 3.11515 -27.9224
LeftArm  -9.15267 -17.7364 -36.5963
LeftForeArm  21.8078 -17.0453 -4.45074
LeftHand  0.0162488 7.38855 2.98397
RightShoulder  -0.986544 -6.1349 30.9207
RightArm  12.2261 2.06808 42.9759
RightForeArm  15.3823 11.2373 5.88374
RightHand  -0.0390123 3.54532 -0.76473
LeftUpLeg  -11.9972 5.33056 -0.602896
LeftLeg  7.02325 -1.90448 -1.33131
LeftFoot  -0.260808 -0.105048 1.09981
LeftToes  -3.96543e-010 8.93632e-011 -2.58531e-011
